<?xml version="1.0" standalone="no"?>
<!DOCTYPE svg PUBLIC "-//W3C//DTD SVG 20010904//EN"
 "http://www.w3.org/TR/2001/REC-SVG-20010904/DTD/svg10.dtd">
<svg version="1.0" xmlns="http://www.w3.org/2000/svg"
 width="512.000000pt" height="512.000000pt" viewBox="0 0 512.000000 512.000000"
 preserveAspectRatio="xMidYMid meet">
<metadata>
Created by potrace 1.11, written by Peter Selinger 2001-2013
</metadata>
<g transform="translate(0.000000,512.000000) scale(0.100000,-0.100000)"
fill="#000000" stroke="none">
<path d="M400 5104 c-191 -51 -336 -197 -385 -390 -13 -54 -15 -300 -13 -2180
l3 -2119 23 -59 c58 -154 182 -277 332 -328 l65 -23 2135 0 2135 0 65 23 c152
52 280 180 332 332 l23 65 0 2135 0 2135 -23 65 c-51 150 -174 274 -328 332
l-59 23 -2125 2 c-1839 2 -2132 0 -2180 -13z m2288 -1096 c22 -15 53 -49 69
-75 31 -53 30 -18 18 -450 -13 -468 28 -786 123 -967 67 -129 128 -143 280
-67 113 57 225 145 398 313 160 154 181 168 270 168 65 0 143 -45 179 -104 36
-59 37 -82 16 -441 -15 -257 -11 -598 10 -898 14 -197 9 -226 -52 -292 -125
-136 -346 -68 -378 115 -15 81 -31 394 -34 642 -1 120 -4 218 -7 218 -3 0 -32
-19 -65 -41 -161 -108 -335 -169 -484 -169 -356 0 -578 273 -669 825 l-19 110
-75 -150 c-398 -788 -804 -1575 -826 -1599 -39 -41 -98 -66 -161 -66 -134 0
-234 111 -219 244 4 34 171 371 659 1331 384 754 666 1298 683 1316 52 54 93
70 172 66 57 -2 79 -7 112 -29z"/>
</g>
</svg>
